# xmcd
#
# Track frame offsets:
#	180
#	15716
#	28909
#	44261
#	57740
#	71269
#	86342
#	99719
#	116626
#	128564
#	143059
#	158339
#	172291
#	189635
#
# Disc length: 2722 seconds
#
# Revision: 1
# Processed by: cddbd v1.4PL0 Copyright (c) Steve Scherf et al.
# Submitted via: audiograbber 1.81.02
#
DISCID=be0aa00e
DTITLE=Duo Derringer - Ready for the country
DYEAR=1900
DGENRE=Country
TTITLE0=We're ready for the country
TTITLE1=Teach your children
TTITLE2=Texas when I die
TTITLE3=All I want tot do in life
TTITLE4=Cottonfields
TTITLE5=Right in the wrong direction
TTITLE6=He's a heartache
TTITLE7=If tomorrow never comes
TTITLE8=Halleluja I just love you so
TTITLE9=The love in my heart
TTITLE10=Love is just so strong
TTITLE11=Heartache by the number
TTITLE12=Never thoght I'd fall in love with you
TTITLE13=Mona
EXTD=
EXTT0=
EXTT1=
EXTT2=
EXTT3=
EXTT4=
EXTT5=
EXTT6=
EXTT7=
EXTT8=
EXTT9=
EXTT10=
EXTT11=
EXTT12=
EXTT13=
PLAYORDER=
